<?xml version="1.0" encoding="UTF-8"?>
<svg id="Layer_1" data-name="Layer 1" xmlns="http://www.w3.org/2000/svg" version="1.1" viewBox="0 0 512 512">
  <defs>
    <style>
      .cls-1 {
        fill: #dd2c00;
      }

      .cls-1, .cls-2, .cls-3, .cls-4 {
        stroke-width: 0px;
      }

      .cls-2 {
        fill: #ffc400;
      }

      .cls-3 {
        fill: #ff9100;
      }

      .cls-4 {
        fill: #5e5e5e;
      }
    </style>
  </defs>
  <path class="cls-4" d="M487.53,299.16c-5,0-9.53-1.17-13.57-3.5-3.97-2.33-7.09-5.55-9.36-9.66-2.26-4.18-3.39-8.84-3.39-13.98s1.06-9.46,3.19-13.57c2.19-4.18,5.24-7.47,9.15-9.87,3.91-2.47,8.36-3.7,13.37-3.7s9.6,1.13,13.37,3.39c3.84,2.26,6.75,5.41,8.74,9.46,1.99,3.98,2.98,8.57,2.98,13.78,0,.62-.03,1.23-.1,1.85-.07.62-.1.96-.1,1.03h-39.27c.34,4.66,2.02,8.26,5.04,10.8,3.02,2.54,6.44,3.8,10.28,3.8,5.89,0,10.42-2.74,13.57-8.23l9.66,4.63c-2.26,4.18-5.41,7.54-9.46,10.08-3.98,2.47-8.67,3.7-14.09,3.7ZM500.48,265.75c-.14-1.65-.69-3.32-1.64-5.04-.96-1.71-2.47-3.15-4.52-4.32-1.99-1.23-4.49-1.85-7.51-1.85-3.36,0-6.27,1.03-8.74,3.08-2.4,2.06-4.04,4.76-4.93,8.12h27.35Z"/>
  <path class="cls-4" d="M436.39,299.16c-5.83,0-10.66-1.34-14.5-4.01-3.77-2.74-6.44-6.17-8.02-10.28l10.08-4.32c1.17,2.81,2.84,4.93,5.04,6.37,2.26,1.44,4.73,2.16,7.4,2.16,2.81,0,5.11-.51,6.89-1.54,1.78-1.1,2.67-2.5,2.67-4.21s-.72-2.98-2.16-4.01c-1.44-1.1-3.8-2.06-7.09-2.88l-6.99-1.64c-3.84-.89-7.16-2.54-9.97-4.93-2.74-2.47-4.11-5.65-4.11-9.56,0-4.73,1.95-8.46,5.86-11.21,3.91-2.81,8.7-4.22,14.39-4.22,4.73,0,8.91.99,12.54,2.98,3.7,1.99,6.37,4.87,8.02,8.64l-9.97,4.22c-.96-2.12-2.43-3.7-4.42-4.73-1.99-1.03-4.15-1.54-6.48-1.54s-4.25.51-5.96,1.54c-1.71.96-2.57,2.26-2.57,3.91,0,1.44.58,2.6,1.75,3.5,1.23.89,3.15,1.64,5.76,2.26l7.61,1.85c5.14,1.3,8.98,3.29,11.52,5.96,2.54,2.6,3.8,5.76,3.8,9.46,0,3.02-.93,5.76-2.78,8.23-1.78,2.47-4.28,4.42-7.51,5.86-3.15,1.44-6.75,2.16-10.8,2.16Z"/>
  <path class="cls-4" d="M382.28,299.16c-3.63,0-6.92-.72-9.87-2.16-2.88-1.51-5.17-3.56-6.89-6.17-1.64-2.67-2.47-5.69-2.47-9.05,0-5.35,1.99-9.56,5.96-12.65,4.04-3.08,9.15-4.63,15.32-4.63,5.41,0,10.04.93,13.88,2.78v-2.16c0-3.08-1.23-5.62-3.7-7.61-2.4-2.06-5.31-3.08-8.74-3.08-5.21,0-9.39,2.12-12.54,6.37l-8.64-5.96c2.4-3.22,5.38-5.69,8.94-7.4,3.63-1.71,7.71-2.57,12.23-2.57,7.47,0,13.23,1.88,17.27,5.65,4.11,3.7,6.17,8.94,6.17,15.73v31.25h-11v-6.27h-.62c-1.64,2.33-3.74,4.25-6.27,5.76-2.54,1.44-5.55,2.16-9.05,2.16ZM384.14,289.8c2.54,0,4.87-.62,6.99-1.85,2.19-1.3,3.91-2.98,5.14-5.04,1.3-2.12,1.95-4.39,1.95-6.79-3.63-1.99-7.51-2.98-11.62-2.98-3.77,0-6.72.82-8.84,2.47-2.12,1.64-3.19,3.74-3.19,6.27,0,2.33.92,4.25,2.78,5.76,1.92,1.44,4.18,2.16,6.79,2.16Z"/>
  <path class="cls-4" d="M334.83,299.16c-3.7,0-7.03-.79-9.97-2.36-2.88-1.58-5.04-3.56-6.48-5.96h-.62v6.68h-10.69v-73.61h11.31v22.1l-.62,7.09h.62c1.44-2.33,3.6-4.28,6.48-5.86,2.95-1.58,6.27-2.36,9.97-2.36,4.39,0,8.43,1.17,12.13,3.5,3.77,2.33,6.75,5.59,8.95,9.77,2.26,4.11,3.39,8.74,3.39,13.88s-1.13,9.77-3.39,13.88c-2.19,4.11-5.17,7.37-8.95,9.77-3.7,2.33-7.75,3.5-12.13,3.5ZM332.88,288.78c2.67,0,5.14-.69,7.4-2.06,2.33-1.37,4.18-3.32,5.55-5.86,1.44-2.6,2.16-5.55,2.16-8.84s-.72-6.2-2.16-8.74c-1.37-2.6-3.22-4.59-5.55-5.96-2.26-1.37-4.73-2.06-7.4-2.06s-5.17.69-7.51,2.06c-2.26,1.37-4.11,3.32-5.55,5.86-1.37,2.54-2.06,5.48-2.06,8.84s.69,6.31,2.06,8.84c1.44,2.54,3.29,4.49,5.55,5.86,2.33,1.37,4.83,2.06,7.51,2.06Z"/>
  <path class="cls-4" d="M275.87,299.16c-5,0-9.53-1.17-13.57-3.5-3.98-2.33-7.09-5.55-9.36-9.66-2.26-4.18-3.39-8.84-3.39-13.98s1.06-9.46,3.19-13.57c2.19-4.18,5.24-7.47,9.15-9.87,3.91-2.47,8.36-3.7,13.37-3.7s9.6,1.13,13.37,3.39c3.84,2.26,6.75,5.41,8.74,9.46,1.99,3.98,2.98,8.57,2.98,13.78,0,.62-.03,1.23-.1,1.85-.07.62-.1.96-.1,1.03h-39.27c.34,4.66,2.02,8.26,5.04,10.8,3.02,2.54,6.44,3.8,10.28,3.8,5.89,0,10.42-2.74,13.57-8.23l9.66,4.63c-2.26,4.18-5.41,7.54-9.46,10.08-3.98,2.47-8.67,3.7-14.09,3.7ZM288.82,265.75c-.14-1.65-.69-3.32-1.65-5.04-.96-1.71-2.47-3.15-4.52-4.32-1.99-1.23-4.49-1.85-7.51-1.85-3.36,0-6.27,1.03-8.74,3.08-2.4,2.06-4.04,4.76-4.93,8.12h27.35Z"/>
  <path class="cls-4" d="M218.16,246.52h10.69v7.61h.62c1.1-2.6,3.08-4.76,5.96-6.48,2.88-1.78,5.83-2.67,8.84-2.67,2.47,0,4.49.34,6.07,1.03v11.82c-2.33-1.17-4.93-1.75-7.81-1.75-3.7,0-6.82,1.44-9.36,4.32-2.47,2.81-3.7,6.27-3.7,10.38v26.73h-11.31v-50.99Z"/>
  <path class="cls-4" d="M202.02,237.88c-2.12,0-3.94-.72-5.45-2.16-1.44-1.51-2.16-3.32-2.16-5.45s.72-3.91,2.16-5.35c1.51-1.51,3.32-2.26,5.45-2.26s3.91.75,5.35,2.26c1.51,1.44,2.26,3.22,2.26,5.35s-.75,3.94-2.26,5.45c-1.44,1.44-3.22,2.16-5.35,2.16ZM196.37,246.52h11.31v50.99h-11.31v-50.99Z"/>
  <polygon class="cls-4" points="144.85 223.9 189.58 223.9 189.58 234.9 156.37 234.9 156.37 256.08 186.29 256.08 186.29 266.98 156.37 266.98 156.37 297.52 144.85 297.52 144.85 223.9"/>
  <path class="cls-3" d="M33.7,319.69c5.65,2.28,11.79,3.63,18.23,3.85,8.72.3,17.01-1.5,24.42-4.92-8.89-3.49-16.94-8.6-23.8-14.95-4.45,7.13-11.04,12.76-18.84,16.02Z"/>
  <path class="cls-2" d="M52.54,303.67c-15.68-14.5-25.19-35.49-24.39-58.51.03-.75.07-1.49.11-2.24-2.81-.73-5.74-1.17-8.76-1.27-4.32-.15-8.5.38-12.45,1.5-4.19,7.33-6.71,15.74-7.03,24.76-.81,23.26,13.26,43.58,33.66,51.79,7.81-3.26,14.39-8.88,18.84-16.02Z"/>
  <path class="cls-3" d="M52.54,303.67c3.65-5.83,5.86-12.67,6.11-20.04.68-19.38-12.35-36.06-30.39-40.71-.05.75-.09,1.49-.11,2.24-.8,23.02,8.71,44.01,24.39,58.51Z"/>
  <path class="cls-1" d="M56.64,188.43c-10.27,8.23-18.38,19.08-23.29,31.58-2.81,7.16-4.58,14.85-5.09,22.91,18.04,4.65,31.07,21.33,30.39,40.71-.26,7.37-2.47,14.2-6.11,20.04,6.87,6.35,14.92,11.45,23.8,14.95,17.84-8.25,30.49-25.99,31.23-46.97.47-13.6-4.75-25.72-12.13-35.94-7.8-10.82-38.79-47.27-38.79-47.27Z"/>
</svg>